<svg xmlns="http://www.w3.org/2000/svg" version="1.1" xmlns:xlink="http://www.w3.org/1999/xlink" xmlns:svgjs="http://svgjs.dev/svgjs" width="2000" height="651" viewBox="0 0 2000 651"><g transform="matrix(1,0,0,1,-1.2121212121213603,0.2732859720204601)"><svg viewBox="0 0 396 129" data-background-color="#ffffff" preserveAspectRatio="xMidYMid meet" height="651" width="2000" xmlns="http://www.w3.org/2000/svg" xmlns:xlink="http://www.w3.org/1999/xlink"><g id="tight-bounds" transform="matrix(1,0,0,1,0.24000000000003752,-0.054153441460272234)"><svg viewBox="0 0 395.5199999999999 129.10806518878385" height="129.10806518878385" width="395.5199999999999"><g><svg viewBox="0 0 676.960458007231 220.97758632338835" height="129.10806518878385" width="395.5199999999999"><g transform="matrix(1,0,0,1,281.4404580072309,46.45976047323521)"><svg viewBox="0 0 395.52 128.05806537691794" height="128.05806537691794" width="395.52"><g id="textblocktransform"><svg viewBox="0 0 395.52 128.05806537691794" height="128.05806537691794" width="395.52" id="textblock"><g><svg viewBox="0 0 395.52 128.05806537691794" height="128.05806537691794" width="395.52"><g transform="matrix(1,0,0,1,0,0)"><svg width="395.52" viewBox="0.54 -34.79 109.77999999999999 35.55" height="128.05806537691794" data-palette-color="#0fb0ff"><path d="M23.88-27.44L23.88-11.16Q23.88-6.01 20.61-2.78L20.61-2.78Q17.14 0.68 11.04 0.68L11.04 0.68Q7.54 0.68 4.42-1.12L4.42-1.12Q2.03-2.49 0.78-4.27L0.78-4.27Q0.54-5.76 0.54-6.98L0.54-6.98Q0.54-10.96 2.95-13.09L2.95-13.09Q4.91-14.79 7.76-14.79L7.76-14.79Q9.94-14.79 11.72-13.65L11.72-13.65Q13.53-12.43 14.38-10.28L14.38-10.28Q15.16-10.28 15.16-11.08L15.16-11.08Q15.16-11.5 14.81-12.18 14.45-12.87 13.79-13.55L13.79-13.55Q12.06-15.33 9.62-15.75L9.62-15.75 9.62-29.81Q10.84-30.71 12.7-31.32 14.55-31.93 16.92-31.93 19.29-31.93 21.19-31.1L21.19-31.1Q23.88-29.88 23.88-27.44L23.88-27.44ZM39.82 0.76L39.82 0.76Q33.05 0.76 29.15-3L29.15-3Q25.14-6.79 25.14-13.37 25.14-19.95 29.27-23.8L29.27-23.8Q33.08-27.39 38.91-27.39 44.75-27.39 48.28-24.18 51.8-20.97 51.8-16.28L51.8-16.28Q51.8-12.11 48.9-9.99L48.9-9.99Q46.21-7.98 41.57-7.98L41.57-7.98Q38.11-7.98 35.72-9.42L35.72-9.42Q35.52-9.28 35.52-8.89L35.52-8.89Q35.52-8.15 37.45-7.54L37.45-7.54Q39.38-6.88 41.83-6.88 44.28-6.88 46.3-7.51 48.31-8.13 49.53-8.98L49.53-8.98Q50.12-8.47 50.47-7.09 50.83-5.71 50.83-4.58 50.83-3.44 50.61-2.56L50.61-2.56Q48.7-0.95 46.7-0.27L46.7-0.27Q43.87 0.76 39.82 0.76ZM39.5-15.77L39.5-15.77Q40.72-15.77 40.72-16.7L40.72-16.7Q40.72-17.58 39.43-17.58 38.13-17.58 37.94-16.19L37.94-16.19Q38.62-15.77 39.5-15.77ZM65.62-29.47L65.62-29.47 65.62-12.3Q65.62-8.67 67.38-7.57L67.38-7.57Q67.4-7.45 67.4-7.1L67.4-7.1 67.4-6.67Q67.4-3.17 65.63-1.37 63.86 0.44 60.62 0.44 57.37 0.44 55.46-1.37L55.46-1.37Q53.19-3.52 53.19-7.86L53.19-7.86 53.19-33.23Q55.76-34.79 59.06-34.79 62.37-34.79 64-33.39 65.62-31.98 65.62-29.47ZM80.9-29.47L80.9-29.47 80.9-12.3Q80.9-8.67 82.66-7.57L82.66-7.57Q82.68-7.45 82.68-7.1L82.68-7.1 82.68-6.67Q82.68-3.17 80.91-1.37 79.14 0.44 75.9 0.44 72.65 0.44 70.74-1.37L70.74-1.37Q68.47-3.52 68.47-7.86L68.47-7.86 68.47-33.23Q71.04-34.79 74.35-34.79 77.65-34.79 79.28-33.39 80.9-31.98 80.9-29.47ZM96.11-13.6L96.11-13.6 96.11-9.33Q96.28-9.16 96.67-9.16 97.06-9.16 97.23-9.42 97.4-9.69 97.4-10.35L97.4-10.35 97.4-13.84Q97.4-16.19 97.21-16.96 97.01-17.72 96.47-17.72L96.47-17.72Q96.13-17.72 95.89-17.48L95.89-17.48Q96.11-15.06 96.11-13.6ZM86.98-2.78L86.98-2.78Q82.97-6.64 82.97-13.24 82.97-19.85 86.75-23.67 90.52-27.49 96.65-27.49 102.77-27.49 106.56-23.51L106.56-23.51Q110.32-19.53 110.32-13.15 110.32-6.76 106.69-3 103.07 0.76 96.84 0.76 90.62 0.76 86.98-2.78Z" opacity="1" transform="matrix(1,0,0,1,0,0)" fill="#0fb0ff" class="undefined-text-0" data-fill-palette-color="primary" id="text-0"></path></svg></g></svg></g></svg></g></svg></g><g><svg viewBox="0 0 220.97758632338835 220.97758632338835" height="220.97758632338835" width="220.97758632338835"><g><svg></svg></g><g id="icon-0"><svg viewBox="0 0 220.97758632338835 220.97758632338835" height="220.97758632338835" width="220.97758632338835"><g><path d="M0 110.489c0-61.021 49.468-110.489 110.489-110.489 61.021 0 110.489 49.468 110.489 110.489 0 61.021-49.468 110.489-110.489 110.489-61.021 0-110.489-49.468-110.489-110.489zM110.489 209.429c54.643 0 98.94-44.297 98.94-98.94 0-54.643-44.297-98.94-98.94-98.941-54.643 0-98.94 44.297-98.941 98.941 0 54.643 44.297 98.94 98.941 98.94z" data-fill-palette-color="accent" fill="#0fb0ff" stroke="transparent"></path></g><g transform="matrix(1,0,0,1,52.38046631582155,56.16463694059431)"><svg viewBox="0 0 116.21665369174525 108.64831244219972" height="108.64831244219972" width="116.21665369174525"><g><svg xmlns="http://www.w3.org/2000/svg" xmlns:xlink="http://www.w3.org/1999/xlink" version="1.1" x="0" y="0" viewBox="0.255 3.0020245219600508 99.59700016315198 93.11097547803995" enable-background="new 0 0 100 100" xml:space="preserve" height="108.64831244219972" width="116.21665369174525" class="icon-n$-0" data-fill-palette-color="accent" id="n$-0"><g fill="#0fb0ff" data-fill-palette-color="accent"><path fill="#0fb0ff" d="M13.836 15.226c-3.376 3.237-5.319 8.131-5.333 13.066C8.5 29.119 9.17 30 9.998 30c0.001 0 0.002 0 0.003 0 0.826 0 1.496-0.875 1.499-1.701 0.011-4.125 1.619-8.13 4.411-10.808 2.661-2.553 6.113-3.881 9.99-3.721 0.812 0.008 1.523-0.637 1.556-1.464 0.032-0.827-0.612-1.537-1.439-1.569C21.376 10.558 17.053 12.142 13.836 15.226z" data-fill-palette-color="accent"></path><path fill="#0fb0ff" d="M3.57 21.076c0.165 0.058 0.333 0.085 0.499 0.085 0.618 0 1.195-0.384 1.413-1C9.074 9.992 20.265 4.634 30.432 8.223c0.781 0.275 1.636-0.134 1.911-0.915 0.275-0.78-0.134-1.636-0.914-1.911C19.707 1.261 6.799 7.438 2.656 19.164 2.381 19.944 2.79 20.8 3.57 21.076z" data-fill-palette-color="accent"></path><path fill="#0fb0ff" d="M72.921 11.931c4.126 0.011 8.028 1.618 10.705 4.41 2.552 2.662 3.821 6.173 3.669 10.047C87.263 27.214 87.908 28 88.734 28c0.02 0 0.04 0 0.06 0 0.8 0 1.464-0.688 1.496-1.496 0.181-4.639-1.417-8.959-4.501-12.176C82.551 10.952 77.864 9 72.929 9c-0.001 0-0.002 0-0.004 0-0.826 0-1.496 0.635-1.498 1.461C71.424 11.288 72.093 11.928 72.921 11.931z" data-fill-palette-color="accent"></path><path fill="#0fb0ff" d="M80.852 5.913c10.17 3.592 15.526 14.785 11.939 24.95-0.275 0.78 0.134 1.636 0.915 1.911 0.165 0.058 0.333 0.086 0.499 0.086 0.617 0 1.196-0.385 1.413-1C99.753 20.138 93.577 7.23 81.85 3.087c-0.778-0.273-1.636 0.133-1.912 0.914S80.072 5.637 80.852 5.913z" data-fill-palette-color="accent"></path><path fill="#0fb0ff" d="M87.689 50.004c-1.17-4.344-2.627-9.104-4.557-14.927C79.315 23.546 74.107 21.5 69.39 21.326c-1.002-1.148-3.452-3.408-7.198-3.408-0.646 0-1.304 0.068-1.966 0.206-2.76-2.662-6.762-3.42-10.174-1.852-3.409-1.569-7.411-0.811-10.172 1.852-0.661-0.137-1.319-0.206-1.966-0.206-3.746 0-6.197 2.261-7.199 3.408-4.717 0.174-9.923 2.221-13.74 13.751-1.93 5.824-3.387 10.583-4.557 14.927C4.851 54.896 0.255 61.267 0.255 68.231c0 15.374 22.339 27.882 49.797 27.882 27.459 0 49.8-12.508 49.8-27.882C99.853 61.267 95.257 54.896 87.689 50.004zM64.638 28.407c0.244-1.409 1.097-2.621 2.341-3.324 0.72-0.408 1.634-0.154 2.042 0.566 0.407 0.72 0.154 1.634-0.566 2.042-0.459 0.259-0.774 0.707-0.864 1.226-0.126 0.729-0.759 1.243-1.475 1.243-0.084 0-0.17-0.007-0.257-0.022C65.044 29.997 64.498 29.222 64.638 28.407zM50.528 33.292c3.055-3.122 8.238-4.979 13.096-2.722 0.75 0.349 1.076 1.24 0.727 1.99-0.348 0.75-1.24 1.077-1.99 0.727-3.893-1.811-8.393 0.13-10.494 3.05-0.266 0.369-0.685 0.598-1.139 0.622-0.026 0.001-0.052 0.002-0.078 0.002-0.427 0-0.834-0.182-1.119-0.502-3.222-3.622-9.01-2.369-9.068-2.355-0.806 0.179-1.608-0.325-1.791-1.132-0.182-0.807 0.326-1.609 1.133-1.791C40.085 31.118 46.14 29.811 50.528 33.292zM59.913 64.27c0.083 0.824-0.518 1.558-1.341 1.641-0.051 0.005-0.102 0.007-0.152 0.007-0.76 0-1.411-0.576-1.489-1.348l-1.6-15.9c-0.083-0.824 0.517-1.558 1.34-1.641 0.827-0.08 1.558 0.518 1.641 1.341L59.913 64.27zM39.343 76.639c0.206 0.801-0.277 1.618-1.078 1.824-0.125 0.032-0.25 0.048-0.374 0.048-0.667 0-1.276-0.449-1.45-1.125-2.308-8.979 1.179-24.139 2.239-27.708 0.236-0.792 1.068-1.244 1.863-1.01 0.793 0.236 1.245 1.07 1.009 1.863C40.604 53.725 37.228 68.41 39.343 76.639zM43.011 21.713c1.228-1.472 3.209-2.064 5.045-1.507 0.792 0.24 1.239 1.077 0.999 1.868s-1.079 1.238-1.868 1c-0.683-0.208-1.419 0.012-1.875 0.559-0.296 0.355-0.722 0.539-1.151 0.539-0.338 0-0.679-0.114-0.959-0.348C42.566 23.293 42.481 22.348 43.011 21.713zM33.646 25.433c0.459-1.188 1.353-2.125 2.517-2.64 1.164-0.515 2.46-0.546 3.646-0.087 0.771 0.299 1.155 1.167 0.856 1.938-0.298 0.771-1.165 1.155-1.938 0.856-0.44-0.17-0.919-0.159-1.352 0.032-0.432 0.191-0.764 0.54-0.935 0.981-0.229 0.594-0.797 0.958-1.397 0.958-0.18 0-0.363-0.032-0.54-0.101C33.731 27.072 33.347 26.205 33.646 25.433zM24.587 50.728c0.399-1.134 0.775-2.205 1.046-3.096 0.241-0.792 1.08-1.239 1.869-0.998 0.792 0.241 1.238 1.078 0.998 1.869-0.29 0.954-0.677 2.055-1.087 3.22-2 5.688-4.741 13.478-1.448 17.987 0.488 0.668 0.342 1.605-0.326 2.094-0.267 0.195-0.576 0.288-0.882 0.288-0.462 0-0.917-0.213-1.211-0.614C19.322 65.693 22.491 56.688 24.587 50.728zM17.132 48.109c0.557-1.615 1.133-3.286 1.681-5.109 0.238-0.793 1.073-1.243 1.866-1.004 0.792 0.238 1.242 1.073 1.003 1.866-0.565 1.882-1.178 3.658-1.718 5.224-2.086 6.051-3.073 9.324-0.882 11.8 0.548 0.619 0.49 1.566-0.13 2.114-0.285 0.252-0.639 0.376-0.992 0.376-0.414 0-0.827-0.17-1.123-0.505C13.388 58.97 15.041 54.177 17.132 48.109zM50.053 93.117c-25.806 0-46.801-11.164-46.801-24.886 0-5.169 2.982-9.975 8.077-13.958-0.348 1.448-0.67 2.871-0.97 4.295-1.189 5.645 2.164 8.755 4.763 9.951 0.132 1.441 0.673 3.958 2.741 5.861 3.046 2.805 7.294 3.334 9.264 3.421 0.692 1.415 2.491 3.659 7.17 5.626 2.487 1.045 5.001 1.575 7.473 1.575 3.967 0 6.88-1.363 8.285-2.191 1.408 0.828 4.329 2.191 8.283 2.191 2.472 0 4.987-0.53 7.474-1.575 4.68-1.967 6.478-4.211 7.168-5.626 1.971-0.087 6.22-0.616 9.268-3.421 2.067-1.904 2.605-4.42 2.738-5.861 2.599-1.196 5.953-4.307 4.764-9.951-0.3-1.424-0.622-2.848-0.97-4.295 5.095 3.983 8.077 8.789 8.077 13.958C96.856 81.953 75.86 93.117 50.053 93.117z" data-fill-palette-color="accent"></path></g></svg></g></svg></g></svg></g></svg></g></svg></g><defs></defs></svg><rect width="395.5199999999999" height="129.10806518878385" fill="none" stroke="none" visibility="hidden"></rect></g></svg></g></svg>